<svg id="Layer_1" data-name="Layer 1" xmlns="http://www.w3.org/2000/svg" xmlns:xlink="http://www.w3.org/1999/xlink" width="200" height="112" viewBox="0 0 200 112"><defs><style>.cls-1,.cls-4{fill:none;}.cls-2{clip-path:url(#clip-path);}.cls-3{fill:#fff;}.cls-3,.cls-5,.cls-6{fill-rule:evenodd;}.cls-4{stroke:#070836;stroke-linecap:round;stroke-miterlimit:2.6131;stroke-width:0.9px;}.cls-5{fill:#0f2752;}.cls-6{fill:#2478ff;}</style><clipPath id="clip-path"><rect class="cls-1" x="-29.6" y="-9.3769" width="259.2" height="206.6189"/></clipPath></defs><g class="cls-2"><path class="cls-3" d="M29.2226,124.866v0m141.5549,0v0M88.7813,43.1514c-.2607.6321-7.0909,5.84-7.9549,6.417-.8694.58-3.2019.5354-6.1756-.7145s-5.6237-.8035-8.14-.2231-7.3194,3.4375-9.2408,6.0267a37.9437,37.9437,0,0,0-4.666,9.1961c-.9152,2.6785-.732,11.9639-.64,12.41s-6.3125,11.5175-7.868,15.5352a45.0349,45.0349,0,0,0-2.1044,9.91s-7.2283,11.25-9.5157,15.8925c-1.4471,2.9374-2.6007,5.66-3.253,7.2641-1.0211,1.6395-5.8162,8.8048-6.3583,9.2808-.1351-.0477-.1958-.0672-.1958-.0672a19.5282,19.5282,0,0,1-2.0333.4936,3.2077,3.2077,0,0,0-1.5862.6867c-.57.3934-2.0673,1.2136-2.0673,1.2136s-3.6584,1.3514-4.4936,1.6125a26.0541,26.0541,0,0,0-4.75,3.4452,13.9573,13.9573,0,0,1-4.1232,2.0876c-.94.2613-2.8712.3133-3.08.731a3.7128,3.7128,0,0,0,1.0961,3.2364c1.0441.7309,1.9837,1.6183,4.02.7309s3.7063-1.6181,3.7063-1.6181a27.6723,27.6723,0,0,1-1.1486,4.1237c-.4695.8875-3.6014,5.69-4.4366,7.099S.5351,163.4027.3784,164.8123s.418,1.7226,1.6183,1.8792,2.5576-1.2,3.1842-2.2445,6.003-9.3439,6.003-9.3439-6.89,12.267-7.0992,13.52-.2612,2.2967,1.566,2.4014,2.4013-2.1407,2.9755-3.1846,6.0556-10.5447,6.0556-10.5447-5.7946,10.9106-5.9511,12.2676.94,1.9311,2.2445,1.5135,2.8322-3.0792,3.1841-3.9148,2.8623-5.6774,3.9185-7.7175v.3715c-.9142,2.29-3.2048,7.32-2.2478,8.2333s2.4249-1.5584,3.381-3.1169c.094-.1535.2277-.374.3915-.6458,1.0967-1.7711,4.2668-7.0838,5.61-9.4116.27-.4462,1.5142-2.4985,2.0348-3.2785.1018-.1526.2648-.4033.47-.7239.7066-1.0613,1.5134-2.3,2.2708-3.5876.4013-.6823.7978-1.3828,1.1708-2.0574.1322-.2346.2533-.454.3593-.6529l.04-.0747c1.0059-1.8506,1.7635-3.3583,1.832-3.4951l.0006-.0007.0086-.0126c.1032-.0854,2.4515-2.0424,2.8789-3.6656q.06-.23.11-.4315a81.799,81.799,0,0,1,5.7853-6.8818c4.3-4.4641,11.7116-10.7139,13.5415-14.4638s1.83-3.8391,1.83-3.8391,1.0065-.2679,1.5554-2.7678a21.6435,21.6435,0,0,0,.5491-2.9464s3.2023-7.2319,5.0322-10.3567a17.122,17.122,0,0,0,2.1045-4.5536,57.6844,57.6844,0,0,0,3.4768,11.4283c2.3789,5.3569,4.7578,9.7317,5.2154,12.1424s-.64,9.2856-1.2811,12.9462a33.31,33.31,0,0,1-1.4,5.6355l.126,1.8644c-1.0674,2.4781-3.2929,7.6756-3.5653,12.9862-.332,6.477-3.9855,17.4383-5.3141,23.7489s-1.9931,11.19-1.9931,11.19H98.5888s-.3323-4.7958-.3323-5.8751-.4153-1.8266,0-2.9061A11.4545,11.4545,0,0,1,100,171.6707a11.4519,11.4519,0,0,1,1.7435,2.5744c.4153,1.0795,0,1.8268,0,2.9061s-.3323,5.8751-.3323,5.8751h36.5372s-.6642-4.8789-1.9932-11.19-4.9819-17.2719-5.3141-23.7489c-.2723-5.3106-2.4976-10.5081-3.5651-12.9862l-.2863-2.5393s-.3469-1.3-.9875-4.9606-1.7385-10.5355-1.281-12.9462,2.8364-6.7855,5.2153-12.1424a57.6881,57.6881,0,0,0,3.4767-11.4283,17.1265,17.1265,0,0,0,2.1045,4.5536c1.83,3.1248,5.0323,10.3567,5.0323,10.3567a21.6471,21.6471,0,0,0,.549,2.9464c.5489,2.5,1.5555,2.7678,1.5555,2.7678s0,.0893,1.83,3.8391,9.241,10,13.5415,14.4638a81.8388,81.8388,0,0,1,5.7854,6.8818q.05.2018.11.4315c.4273,1.6232,2.7757,3.58,2.8789,3.6656l.0085.0126.0006.0007c.0685.1368.8261,1.6445,1.832,3.4951l.04.0747c.106.1989.2271.4183.3594.6529.373.6746.7694,1.3751,1.1707,2.0574.7574,1.2879,1.5643,2.5263,2.2708,3.5876.2055.3206.3685.5713.47.7239.5206.78,1.765,2.8323,2.0349,3.2785,1.3435,2.3278,4.5136,7.64,5.61,9.4116.1637.2718.2974.4923.3914.6458.9561,1.5585,2.424,4.03,3.381,3.1169s-1.3337-5.943-2.2477-8.2333v-.3715c1.0562,2.04,3.5667,6.882,3.9186,7.7175s1.8787,3.4974,3.1839,3.9148,2.4012-.1565,2.2445-1.5135-5.951-12.2676-5.951-12.2676,5.4814,9.5007,6.0555,10.5447,1.1484,3.2889,2.9755,3.1846,1.7748-1.1486,1.5661-2.4014-7.0993-13.52-7.0993-13.52,5.3762,8.3,6.003,9.3439,1.9836,2.401,3.1842,2.2445,1.7747-.47,1.6183-1.8792-2.5578-5.4811-3.3931-6.8905-3.9669-6.2115-4.4366-7.099a27.6691,27.6691,0,0,1-1.1485-4.1237s1.67.7308,3.7062,1.6181,2.9754,0,4.0195-.7309a3.7125,3.7125,0,0,0,1.0961-3.2364c-.2085-.4177-2.14-.47-3.08-.731a13.9573,13.9573,0,0,1-4.1232-2.0876,26.0541,26.0541,0,0,0-4.75-3.4452c-.8351-.2611-4.4936-1.6125-4.4936-1.6125s-1.4973-.82-2.0673-1.2136a3.2074,3.2074,0,0,0-1.5861-.6867,19.5214,19.5214,0,0,1-2.0333-.4936s-.0608.0195-.1959.0672c-.5421-.476-5.3371-7.6413-6.3583-9.2808-.6523-1.6042-1.8057-4.3267-3.253-7.2641-2.2874-4.6426-9.5156-15.8925-9.5156-15.8925a45.025,45.025,0,0,0-2.1045-9.91c-1.5554-4.0177-7.9594-15.0886-7.8678-15.5352s.2745-9.7318-.6405-12.41a37.9451,37.9451,0,0,0-4.6663-9.1961c-1.9212-2.5892-6.7245-5.4463-9.2407-6.0267s-5.1661-1.0268-8.14.2231-5.3062,1.2948-6.1755.7145c-.7489-.5-5.98-4.4793-7.5309-5.9426l.3347-4.3112L112.12,38.05c.0658-1.5824.1625-3.1258.1625-3.1258.4113-1.3629.91-4.8032.91-4.8032s2.0248-.81,2.3141-1.7935c.5952-2.0236,1.8174-4.9556.8735-7.2889a1.1233,1.1233,0,0,0-2.0251-.1735c-.4628.8679-.4049,5.2649-.4049,5.2649l-1.2152.9258s-.0879-7.0586-.4927-8.3892-1.17-1.7347-1.1125-3.2968-2.0914-4.0509-4.2319-3.3565c-1.9147.621-4.76,2.2139-6.6639,2.17-1.9044.0436-4.7493-1.5493-6.664-2.17-2.1407-.6944-4.2895,1.7941-4.232,3.3565s-.7076,1.9661-1.1125,3.2968-.4927,8.3892-.4927,8.3892L86.5176,26.13s.058-4.397-.405-5.2649a1.1233,1.1233,0,0,0-2.0251.1735c-.9436,2.3333.2783,5.2653.8737,7.2889.2893.9838,2.314,1.7935,2.314,1.7935s.4989,3.44.91,4.8032C88.3578,37.6752,88.548,40.4038,88.7813,43.1514Z"/><path class="cls-4" d="M29.2226,124.866v0m141.5549,0v0M88.7813,43.1514c-.2607.6321-7.0909,5.84-7.9549,6.417-.8694.58-3.2019.5354-6.1756-.7145s-5.6237-.8035-8.14-.2231-7.3194,3.4375-9.2408,6.0267a37.9437,37.9437,0,0,0-4.666,9.1961c-.9152,2.6785-.732,11.9639-.64,12.41s-6.3125,11.5175-7.868,15.5352a45.0349,45.0349,0,0,0-2.1044,9.91s-7.2283,11.25-9.5157,15.8925c-1.4471,2.9374-2.6007,5.66-3.253,7.2641-1.0211,1.6395-5.8162,8.8048-6.3583,9.2808-.1351-.0477-.1958-.0672-.1958-.0672a19.5282,19.5282,0,0,1-2.0333.4936,3.2077,3.2077,0,0,0-1.5862.6867c-.57.3934-2.0673,1.2136-2.0673,1.2136s-3.6584,1.3514-4.4936,1.6125a26.0541,26.0541,0,0,0-4.75,3.4452,13.9573,13.9573,0,0,1-4.1232,2.0876c-.94.2613-2.8712.3133-3.08.731a3.7128,3.7128,0,0,0,1.0961,3.2364c1.0441.7309,1.9837,1.6183,4.02.7309s3.7063-1.6181,3.7063-1.6181a27.6723,27.6723,0,0,1-1.1486,4.1237c-.4695.8875-3.6014,5.69-4.4366,7.099S.5351,163.4027.3784,164.8123s.418,1.7226,1.6183,1.8792,2.5576-1.2,3.1842-2.2445,6.003-9.3439,6.003-9.3439-6.89,12.267-7.0992,13.52-.2612,2.2967,1.566,2.4014,2.4013-2.1407,2.9755-3.1846,6.0556-10.5447,6.0556-10.5447-5.7946,10.9106-5.9511,12.2676.94,1.9311,2.2445,1.5135,2.8322-3.0792,3.1841-3.9148,2.8623-5.6774,3.9185-7.7175v.3715c-.9142,2.29-3.2048,7.32-2.2478,8.2333s2.4249-1.5584,3.381-3.1169c.094-.1535.2277-.374.3915-.6458,1.0967-1.7711,4.2668-7.0838,5.61-9.4116.27-.4462,1.5142-2.4985,2.0348-3.2785.1018-.1526.2648-.4033.47-.7239.7066-1.0613,1.5134-2.3,2.2708-3.5876.4013-.6823.7978-1.3828,1.1708-2.0574.1322-.2346.2533-.454.3593-.6529l.04-.0747c1.0059-1.8506,1.7635-3.3583,1.832-3.4951l.0006-.0007.0086-.0126c.1032-.0854,2.4515-2.0424,2.8789-3.6656q.06-.23.11-.4315a81.799,81.799,0,0,1,5.7853-6.8818c4.3-4.4641,11.7116-10.7139,13.5415-14.4638s1.83-3.8391,1.83-3.8391,1.0065-.2679,1.5554-2.7678a21.6435,21.6435,0,0,0,.5491-2.9464s3.2023-7.2319,5.0322-10.3567a17.122,17.122,0,0,0,2.1045-4.5536,57.6844,57.6844,0,0,0,3.4768,11.4283c2.3789,5.3569,4.7578,9.7317,5.2154,12.1424s-.64,9.2856-1.2811,12.9462a33.31,33.31,0,0,1-1.4,5.6355l.126,1.8644c-1.0674,2.4781-3.2929,7.6756-3.5653,12.9862-.332,6.477-3.9855,17.4383-5.3141,23.7489s-1.9931,11.19-1.9931,11.19H98.5888s-.3323-4.7958-.3323-5.8751-.4153-1.8266,0-2.9061A11.4545,11.4545,0,0,1,100,171.6707a11.4519,11.4519,0,0,1,1.7435,2.5744c.4153,1.0795,0,1.8268,0,2.9061s-.3323,5.8751-.3323,5.8751h36.5372s-.6642-4.8789-1.9932-11.19-4.9819-17.2719-5.3141-23.7489c-.2723-5.3106-2.4976-10.5081-3.5651-12.9862l-.2863-2.5393s-.3469-1.3-.9875-4.9606-1.7385-10.5355-1.281-12.9462,2.8364-6.7855,5.2153-12.1424a57.6881,57.6881,0,0,0,3.4767-11.4283,17.1265,17.1265,0,0,0,2.1045,4.5536c1.83,3.1248,5.0323,10.3567,5.0323,10.3567a21.6471,21.6471,0,0,0,.549,2.9464c.5489,2.5,1.5555,2.7678,1.5555,2.7678s0,.0893,1.83,3.8391,9.241,10,13.5415,14.4638a81.8388,81.8388,0,0,1,5.7854,6.8818q.05.2018.11.4315c.4273,1.6232,2.7757,3.58,2.8789,3.6656l.0085.0126.0006.0007c.0685.1368.8261,1.6445,1.832,3.4951l.04.0747c.106.1989.2271.4183.3594.6529.373.6746.7694,1.3751,1.1707,2.0574.7574,1.2879,1.5643,2.5263,2.2708,3.5876.2055.3206.3685.5713.47.7239.5206.78,1.765,2.8323,2.0349,3.2785,1.3435,2.3278,4.5136,7.64,5.61,9.4116.1637.2718.2974.4923.3914.6458.9561,1.5585,2.424,4.03,3.381,3.1169s-1.3337-5.943-2.2477-8.2333v-.3715c1.0562,2.04,3.5667,6.882,3.9186,7.7175s1.8787,3.4974,3.1839,3.9148,2.4012-.1565,2.2445-1.5135-5.951-12.2676-5.951-12.2676,5.4814,9.5007,6.0555,10.5447,1.1484,3.2889,2.9755,3.1846,1.7748-1.1486,1.5661-2.4014-7.0993-13.52-7.0993-13.52,5.3762,8.3,6.003,9.3439,1.9836,2.401,3.1842,2.2445,1.7747-.47,1.6183-1.8792-2.5578-5.4811-3.3931-6.8905-3.9669-6.2115-4.4366-7.099a27.6691,27.6691,0,0,1-1.1485-4.1237s1.67.7308,3.7062,1.6181,2.9754,0,4.0195-.7309a3.7125,3.7125,0,0,0,1.0961-3.2364c-.2085-.4177-2.14-.47-3.08-.731a13.9573,13.9573,0,0,1-4.1232-2.0876,26.0541,26.0541,0,0,0-4.75-3.4452c-.8351-.2611-4.4936-1.6125-4.4936-1.6125s-1.4973-.82-2.0673-1.2136a3.2074,3.2074,0,0,0-1.5861-.6867,19.5214,19.5214,0,0,1-2.0333-.4936s-.0608.0195-.1959.0672c-.5421-.476-5.3371-7.6413-6.3583-9.2808-.6523-1.6042-1.8057-4.3267-3.253-7.2641-2.2874-4.6426-9.5156-15.8925-9.5156-15.8925a45.025,45.025,0,0,0-2.1045-9.91c-1.5554-4.0177-7.9594-15.0886-7.8678-15.5352s.2745-9.7318-.6405-12.41a37.9451,37.9451,0,0,0-4.6663-9.1961c-1.9212-2.5892-6.7245-5.4463-9.2407-6.0267s-5.1661-1.0268-8.14.2231-5.3062,1.2948-6.1755.7145c-.7489-.5-5.98-4.4793-7.5309-5.9426l.3347-4.3112L112.12,38.05c.0658-1.5824.1625-3.1258.1625-3.1258.4113-1.3629.91-4.8032.91-4.8032s2.0248-.81,2.3141-1.7935c.5952-2.0236,1.8174-4.9556.8735-7.2889a1.1233,1.1233,0,0,0-2.0251-.1735c-.4628.8679-.4049,5.2649-.4049,5.2649l-1.2152.9258s-.0879-7.0586-.4927-8.3892-1.17-1.7347-1.1125-3.2968-2.0914-4.0509-4.2319-3.3565c-1.9147.621-4.76,2.2139-6.6639,2.17-1.9044.0436-4.7493-1.5493-6.664-2.17-2.1407-.6944-4.2895,1.7941-4.232,3.3565s-.7076,1.9661-1.1125,3.2968-.4927,8.3892-.4927,8.3892L86.5176,26.13s.058-4.397-.405-5.2649a1.1233,1.1233,0,0,0-2.0251.1735c-.9436,2.3333.2783,5.2653.8737,7.2889.2893.9838,2.314,1.7935,2.314,1.7935s.4989,3.44.91,4.8032C88.3578,37.6752,88.548,40.4038,88.7813,43.1514Z"/><path class="cls-5" d="M100.234,14.1668c-2.0109-.1742-4.915-1.58-6.664-2.1538-2.1141-.6943-4.2249,1.562-4.2267,3.1244s-.6622,2.1983-1.1178,3.5289-.4929,8.3892-.4929,8.3892l-1.18-.9257s.2254-4.3971-.2044-5.2648a1.1336,1.1336,0,0,0-1.2755-.4852s.0052-2.6387.0666-5.7629a6.092,6.092,0,0,1,1.6159-4.455s-.5813-1.4462,1.901-4.3389c2.0985-2.4455,6.5146-3.8574,11.5777-3.5012,5.0629-.3562,9.4791,1.0557,11.5775,3.5012,2.4822,2.8927,1.9011,4.3389,1.9011,4.3389a6.0917,6.0917,0,0,1,1.6158,4.455c.0615,3.1242.0667,5.7629.0667,5.7629a1.1337,1.1337,0,0,0-1.2756.4852c-.43.8677-.2043,5.2648-.2043,5.2648l-1.18.9257s-.0372-7.0585-.4928-8.3892-1.116-1.9666-1.1178-3.5289-2.1126-3.8187-4.2268-3.1244C105.1489,12.5871,102.2446,13.9926,100.234,14.1668Z"/><path class="cls-4" d="M100.234,14.1668c-2.0109-.1742-4.915-1.58-6.664-2.1538-2.1141-.6943-4.2249,1.562-4.2267,3.1244s-.6622,2.1983-1.1178,3.5289-.4929,8.3892-.4929,8.3892l-1.18-.9257s.2254-4.3971-.2044-5.2648a1.1336,1.1336,0,0,0-1.2755-.4852s.0052-2.6387.0666-5.7629a6.092,6.092,0,0,1,1.6159-4.455s-.5813-1.4462,1.901-4.3389c2.0985-2.4455,6.5146-3.8574,11.5777-3.5012,5.0629-.3562,9.4791,1.0557,11.5775,3.5012,2.4822,2.8927,1.9011,4.3389,1.9011,4.3389a6.0917,6.0917,0,0,1,1.6158,4.455c.0615,3.1242.0667,5.7629.0667,5.7629a1.1337,1.1337,0,0,0-1.2756.4852c-.43.8677-.2043,5.2648-.2043,5.2648l-1.18.9257s-.0372-7.0585-.4928-8.3892-1.116-1.9666-1.1178-3.5289-2.1126-3.8187-4.2268-3.1244C105.1489,12.5871,102.2446,13.9926,100.234,14.1668Z"/><path class="cls-4" d="M87.4432,31.742a31.35,31.35,0,0,1-.3349-3.2426"/><path class="cls-4" d="M100.1037,43.4153a8.8733,8.8733,0,0,1-3.7749-.6437,55.5947,55.5947,0,0,1-6.8566-6.1863c-.6941-.9837-1.3873-2.0092-1.3873-2.0092"/><path class="cls-4" d="M113.0245,31.742a31.3918,31.3918,0,0,0,.3351-3.2426"/><path class="cls-4" d="M100.1037,43.4153a28.59,28.59,0,0,0,3.7227-.22c.9373-.1562,6.4753-5.6267,7.1693-6.61s1.3874-2.0092,1.3874-2.0092"/><path class="cls-4" d="M66.7868,91.0848A19.3582,19.3582,0,0,1,65.5137,85.86V81.932a85.6488,85.6488,0,0,0-.02-9.6695c-.3572-2.3214-1.6636-3.959-.8928-4.375"/><path class="cls-4" d="M41.9913,101.71s.2827,2.5883,3.5767,3.749"/><path class="cls-4" d="M65.5137,85.86s-5.4892,7.0983-10.613,10.759"/><path class="cls-4" d="M51.9637,76.2639s2.388-4.5543,5.2243-6.6079a15.4988,15.4988,0,0,0,3.9344-3.8394,2.3775,2.3775,0,0,1,1.3724-.7589"/><path class="cls-4" d="M90.4985,39.6582c2.2587,7.6905,3.3609,11.7407,6.3244,13.5248"/><path class="cls-4" d="M96.5082,54.9184A8.2679,8.2679,0,0,0,93.22,52.8258c-1.5554-.3125-6.7066.3569-9.543.2678a17.7693,17.7693,0,0,1-6.176-1.7857"/><path class="cls-4" d="M98.9574,85.7267a1.9821,1.9821,0,0,0-1.83-1.5179c-1.4639,0-10.0647,3.6606-10.7051,4.5534s-1.0065,5.7143-1.1894,8.0355-.2745,3.8392.549,4.0178,6.13-3.5713,8.3262-4.5534,4.483-.0892,5.3066-.8036.32-3.8391.32-5.1784A22.4418,22.4418,0,0,0,98.9574,85.7267Z"/><path class="cls-4" d="M99.7948,99.9672a6.3175,6.3175,0,0,0-.64-1.5623c-.32-.4018-2.0589-.2681-4.1174.0445s-6.2676,2.9018-6.9079,3.2142a6.0612,6.0612,0,0,0-2.1959,2.9464c-.0916.8483-.2289,4.7323-.3661,5.2678s1.5553.5356,3.5227-.4018,6.2676-1.4284,7.4113-1.4732,2.0127.7143,2.79-.3572S99.7948,99.9672,99.7948,99.9672Z"/><path class="cls-4" d="M99.6328,111.2618a6.4093,6.4093,0,0,0-1.1894-1.4733,6.3918,6.3918,0,0,0-3.7056-.4017,54.3711,54.3711,0,0,0-7.96,2.723c-.7778.4466-.8233,1.6965-.9149,2.5893s.0915,6.2051.0915,7.0981.8692,1.3394,1.9214,1.3839a76.9568,76.9568,0,0,0,9.8816-1.92c1.51-.491,2.0129-.9374,2.15-1.7409S99.6328,111.2618,99.6328,111.2618Z"/><path class="cls-4" d="M133.2133,91.0848a19.357,19.357,0,0,0,1.2732-5.2244V81.932s-.1554-10.7411.559-12.7945a6.3207,6.3207,0,0,1,1.6072-2.7678"/><path class="cls-4" d="M158.0089,101.71s-.2828,2.5883-3.5766,3.749"/><path class="cls-4" d="M134.4865,85.86s5.4891,7.0983,10.6129,10.759"/><path class="cls-4" d="M148.0365,76.2639s-2.3881-4.5543-5.2244-6.6079a15.4988,15.4988,0,0,1-3.9344-3.8394,2.3775,2.3775,0,0,0-1.3724-.7589"/><path class="cls-4" d="M106.8511,45.7989s.1677,1.8213-4.3883,7.5089"/><path class="cls-4" d="M103.1347,54.6506a8.2685,8.2685,0,0,1,3.2886-2.0926c1.5552-.3126,7.0635.6247,9.9.5356a17.7684,17.7684,0,0,0,6.176-1.7857"/><path class="cls-4" d="M101.0428,85.7267a1.9821,1.9821,0,0,1,1.83-1.5179c1.4639,0,10.0647,3.6606,10.7052,4.5534s1.0064,5.7143,1.1894,8.0355.2745,3.8392-.549,4.0178-6.13-3.5713-8.3263-4.5534-4.483-.0892-5.3065-.8036-.32-3.8391-.32-5.1784A22.4418,22.4418,0,0,1,101.0428,85.7267Z"/><path class="cls-4" d="M100.1251,99.9672a6.3148,6.3148,0,0,1,.6405-1.5623c.32-.4018,2.0588-.2681,4.1174.0445s6.2675,2.9018,6.9079,3.2142a6.0616,6.0616,0,0,1,2.1958,2.9464c.0916.8483.2288,4.7323.3661,5.2678s-1.5553.5356-3.5227-.4018-6.2675-1.4284-7.4111-1.4732-2.0129.7143-2.7907-.3572S100.1251,99.9672,100.1251,99.9672Z"/><path class="cls-4" d="M100.555,111.2618a6.4108,6.4108,0,0,1,1.1895-1.4733,6.3918,6.3918,0,0,1,3.7056-.4017,54.3752,54.3752,0,0,1,7.96,2.723c.7776.4466.8233,1.6965.9149,2.5893s-.0915,6.2051-.0915,7.0981-.8692,1.3394-1.9214,1.3839a76.9568,76.9568,0,0,1-9.8816-1.92c-1.51-.491-2.0131-.9374-2.15-1.7409S100.555,111.2618,100.555,111.2618Z"/><path class="cls-4" d="M99.9679,57.6021s-1.075,20.4453,0,24.285"/><path class="cls-4" d="M80.8264,49.5684a4.8842,4.8842,0,0,1-2.5825.8906"/><path class="cls-4" d="M119.6732,49.7889a11.0537,11.0537,0,0,0,3.2666.9377"/><path class="cls-4" d="M130.6741,83.5153s1.2353,2.4193-.9607,7.5084"/><path class="cls-4" d="M67.8488,76.931s.7319,4.4641,4.6663,6.0711,20.5824.628,21.957.1353,2.7213-3.4054,2.7213-3.4054"/><path class="cls-4" d="M131.9039,76.931s-.7319,4.4641-4.6663,6.0711-20.5825.628-21.957.1353-2.7214-3.4054-2.7214-3.4054"/><path class="cls-6" d="M98.3642,56.351s-2.7448.3572-4.2087-.5357-2.47-2.1428-3.8428-2.3214-4.7579.8928-6.9538.8928-4.8493-1.1606-6.7707-1.8749-5.49,1.5178-8.2347,3.9284-3.7515,6.4286-3.1109,7.5,2.9279,3.9284,3.66,7.2319,1.3724,7.1427,2.3789,8.75,7.32,2.3214,10.0646,2.3214,11.8029-.4464,12.81-.9821,2.47-2.3216,2.9279-5.1785.4574-16.3389.4574-16.9638a15.2543,15.2543,0,0,1,.8234-2.7678"/><path class="cls-6" d="M100.9262,56.351s2.7448.3572,4.2088-.5357,2.47-2.1428,3.8427-2.3214,4.7579.8928,6.9538.8928,4.8493-1.1606,6.7707-1.8749,5.49,1.5178,8.2347,3.9284,3.7515,6.4286,3.1109,7.5-2.9279,3.9284-3.66,7.2319-1.3724,7.1427-2.3789,8.75-7.32,2.3214-10.0646,2.3214-11.8029-.4464-12.8094-.9821-2.4706-2.3216-2.928-5.1785-.4574-16.3389-.4574-16.9638a15.2543,15.2543,0,0,0-.8234-2.7678"/><path class="cls-4" d="M82.4525,87.2839a40.986,40.986,0,0,0-4.3749,3.8392c-1.3393,1.5178-3.6606,3.1249-5.4463,3.1249"/><path class="cls-4" d="M73.0467,108.5166s.0312-2.394.12-3.3761,1.4287-.7141,2.3215-.357,5.3568,2.0534,5.3568,2.0534"/><path class="cls-4" d="M74.6813,104.5323a4.18,4.18,0,0,1-.9786-2.5167c0-1.4286,1.7858-3.5713,1.7858-3.5713l1.7408-.6249"/><path class="cls-4" d="M72.8992,95.3193a7.0856,7.0856,0,0,0,2.0981,2.4553"/><path class="cls-4" d="M80.131,90.4981a12.3356,12.3356,0,0,1,2.1875.0447c.2679.1339.6251,1.5623.1786,3.08a15.4385,15.4385,0,0,1-2.0536,3.6607"/><path class="cls-4" d="M78.5686,97.8194s2.2321-.67,2.7232.491a12.5364,12.5364,0,0,1,.6249,4.9552,6.7552,6.7552,0,0,1-.8035,2.2321"/><path class="cls-4" d="M80.8453,106.8369a5.9409,5.9409,0,0,1,1.4286,2.1877,10.8649,10.8649,0,0,1-.4018,4.6874A2.2375,2.2375,0,0,1,80.488,115.14"/><path class="cls-4" d="M127.7556,106.8132a4.3731,4.3731,0,0,0-.8836-2.8108c-.9375-.8928-2.7232-.3125-3.4375-.0446s-4.7767,1.83-5.58,3.1249"/><path class="cls-4" d="M116.9615,108.6452a13.3478,13.3478,0,0,0-.4464,3.0357c0,1.4285-.0892,2.6785.4911,2.9463a5.203,5.203,0,0,0,1.3391.3572"/><path class="cls-4" d="M121.0688,96.592s-2.3661-.3125-2.6786.1786a18.7613,18.7613,0,0,0-1.5179,2.991,15.858,15.858,0,0,0,.4019,4.5088,7.7191,7.7191,0,0,0,1.0267.9374"/><path class="cls-4" d="M124.149,97.44a23.9635,23.9635,0,0,1,1.116,2.4107,11.6016,11.6016,0,0,1,.4018,2.4552"/><path class="cls-4" d="M126.7383,100.4312c.0445-.2231,1.5625-1.9641,1.83-3.2142"/><path class="cls-4" d="M127.1846,94.092A14.3565,14.3565,0,0,1,125.399,96.28"/><path class="cls-4" d="M118.7819,96.5649a27.386,27.386,0,0,1-2.5345-3.8122,6.481,6.481,0,0,1,.0447-3.6159c.2231-.5357,1.7857-1.116,1.7857-1.116"/><path class="cls-4" d="M119.73,88.8243s1.4284,1.8749,2.41,3.125,5.4019,2.4329,6.0269,1.9865a4.2157,4.2157,0,0,0,.9821-1.92"/><path class="cls-4" d="M70.3126,84.4942a50.322,50.322,0,0,0-.1787,6.9641,5.8746,5.8746,0,0,0,.9821,2.5892"/><path class="cls-4" d="M71.2054,96.19a4.6654,4.6654,0,0,0,.2678,2.8571,5.8854,5.8854,0,0,0,2.2295,2.9682"/><path class="cls-4" d="M48.5281,107.6186s-10.8033,11.6961-14.7317,21.3387"/><path class="cls-4" d="M41.8319,109.4042s-10.1593,16.16-12.6686,17.5888"/><path class="cls-4" d="M148.5262,105.2081s10,10.5354,11.9638,13.4817,7.232,10.089,7.232,10.089"/><path class="cls-4" d="M157.4544,108.7794s12.02,14.2213,13.9118,19.9354"/><path class="cls-4" d="M140.35,105.9951s-.1269-3.1082,1.2125-4.894"/><path class="cls-4" d="M59.6253,106.2382a2.976,2.976,0,0,0-1.4976-2.28"/></g></svg>