<svg id="Layer_1" data-name="Layer 1" xmlns="http://www.w3.org/2000/svg" xmlns:xlink="http://www.w3.org/1999/xlink" width="200" height="112" viewBox="0 0 200 112"><defs><style>.cls-1,.cls-4,.cls-5,.cls-8{fill:none;}.cls-2{clip-path:url(#clip-path);}.cls-3{fill:#fff;}.cls-3,.cls-6,.cls-7{fill-rule:evenodd;}.cls-4,.cls-5,.cls-8{stroke:#070836;stroke-linecap:round;stroke-miterlimit:2.6131;}.cls-4{stroke-width:0.72px;}.cls-5{stroke-width:0.72px;}.cls-6{fill:#2478ff;}.cls-7{fill:#0f2752;}.cls-8{stroke-width:0.7201px;}</style><clipPath id="clip-path"><rect class="cls-1" x="17.3524" y="-11.68" width="165.2951" height="207.36"/></clipPath></defs><g class="cls-2"><path class="cls-3" d="M99.5505,156.8774h0M76.6194,50.53c-2.0776.4985-3.7194.7854-4.1859.8951-1.0128.2383-8.1022,1.7873-11.1407,6.0768a17.9448,17.9448,0,0,0-3.4555,10.4259c-.1192,2.5617,0,8.4,0,8.4A53.0706,53.0706,0,0,0,52.8331,86.456c-2.2044,5.9576-2.3234,8.6386-2.3234,8.6386a41.7957,41.7957,0,0,0-4.7152,9.0418l-.08.0927c-3.9543,4.55-3.6785,8.835-4.2859,15.0078s-.7825,11.0563-1.8013,14.57-4.0174,13.0416-4.331,13.3319a42.0543,42.0543,0,0,0-5.1937,3.6244c-2.6637,2.268-2.5237,3.5537-3.1187,4.2994a6.9592,6.9592,0,0,0-1.5935,2.6275c-.7511,1.833-1.3829,1.815-1.6866,2.4458s.4233,2.4288,1.6433,2.1022,2.136-2.05,2.802-2.7237a10.3232,10.3232,0,0,0,1.3784-2.1279l-.07,1.67s-2.8827,6.7937-3.6228,8.5387-2.3069,4.7956-2.0374,7.0261,2.108.5541,2.108.5541,3.9474-6.3189,4.7417-7.789,1.333-1.6339,1.333-1.6339-2.4151,8.8711-2.8364,10.4959-1.37,3.4684.0006,4.625,2.5291-1.0709,2.5291-1.0709,3.0642-9.3418,3.7283-11.4714,1.3426-1.0076,1.3426-1.0076-1.7583,9.8831-1.9252,10.7726-.5764,2.2836.1571,3.3949,2.3393.28,2.7144-.4221S40.4449,168.133,40.94,167.75s.4588,1.1657.74,2.88.4248,6.4826.7749,7.0986,2.0858.73,2.3081-.4561-.32-9.13-.4264-10.5363,1.0179-3.2276,2.31-5.9379,1.7434-8.2246,1.77-10.4,1.62-5.3687,2.9715-10.09a65.0955,65.0955,0,0,1,6.0356-13.67A133.5322,133.5322,0,0,0,64.51,110.76c.5025-1.8258.0149-6.4772.0149-6.4772s.0456-.3552.1184-.9708c.0537-.3933.09-.7231.115-.9951.04-.3583.0841-.7566.13-1.1878.5193-1.0409,3.4184-6.8635,4.4474-9.1921,1.132-2.5618,1.9064-4.7067,1.9064-4.7067a31.3844,31.3844,0,0,0,2.3831,7.5067c1.6681,3.3362,1.9064,5.2426,2.4426,6.3151a11.6423,11.6423,0,0,1,.9533,4.17c.12,1.2417.3749,2.7255.42,4.3611a29.58,29.58,0,0,1-1.5029,7.6186c-1.229,2.8089-.3511,5.4423-.3511,7.5489s-2.2824,18.7841-4.2133,25.1041-.5268,10.8845-.5268,15.8v4.9154l25.631.5267a16.1969,16.1969,0,0,0,1.931-6.4954c.0877-3.2479.0877-7.3734.0877-7.3734l1.0533-.351h0l2.2948.351s0,4.1255.0875,7.3734a16.198,16.198,0,0,0,1.9312,6.4954l25.631-.5267v-4.9154c0-4.9155,1.4043-9.48-.5268-15.8s-4.2133-22.9974-4.2133-25.1041.8778-4.74-.3511-7.5489c-1.1846-2.7076-1.5535-8.187-1.5785-8.5791.0923-1.2579.2747-2.4069.3708-3.4006a11.6359,11.6359,0,0,1,.9533-4.17c.5362-1.0725.7743-2.9789,2.4424-6.3151a31.3767,31.3767,0,0,0,2.3832-7.5067s.7746,2.1449,1.9065,4.7067c.9551,2.1616,3.5221,7.3349,4.3007,8.8984H135.08c.2149,2.0525.3943,3.4474.3943,3.4474s-.4876,4.6514.0147,6.4772a133.5393,133.5393,0,0,0,7.0865,15.8789,65.0951,65.0951,0,0,1,6.0355,13.67c1.351,4.7208,2.9448,7.9146,2.9716,10.09s.4788,7.6891,1.77,10.4,2.416,4.5314,2.3093,5.9379-.6486,9.35-.4263,10.5363,1.9579,1.0721,2.3082.4561.4931-5.3841.7747-7.0986.2451-3.2635.74-2.88,2.8744,12.6164,3.2494,13.3186,1.9808,1.5333,2.7144.4221.3239-2.5055.157-3.3949-1.9251-10.7726-1.9251-10.7726.6786-1.1219,1.3426,1.0076,3.7281,11.4714,3.7281,11.4714,1.1587,2.2274,2.5292,1.0709.4219-3,.0006-4.625-2.8364-10.4959-2.8364-10.4959.5387.1638,1.3329,1.6339,4.7419,7.789,4.7419,7.789,1.8383,1.6766,2.1079-.5541-1.2973-5.2812-2.0374-7.0261-3.6229-8.5387-3.6229-8.5387l-.07-1.67a10.3232,10.3232,0,0,0,1.3784,2.1279c.666.674,1.5819,2.3969,2.8021,2.7237s1.9468-1.4712,1.6432-2.1022-.9355-.6128-1.6865-2.4458a6.9618,6.9618,0,0,0-1.5935-2.6275c-.5951-.7457-.4551-2.0314-3.1188-4.2994a42.0572,42.0572,0,0,0-5.1936-3.6244c-.3137-.29-3.3123-9.8187-4.3311-13.3319-1.003-3.4588-1.1882-8.2462-1.7734-14.2842a4.4961,4.4961,0,0,0-.0446-.4589c-.5708-5.9244-.3642-10.109-3.9779-14.4894a41.4943,41.4943,0,0,0-4.8687-9.4794s-.1191-2.681-2.3235-8.6386A53.06,53.06,0,0,0,142.38,76.3278s.1192-5.8386,0-8.4a17.9455,17.9455,0,0,0-3.4555-10.4259c-3.0385-4.29-10.1281-5.8385-11.1408-6.0768-.4873-.1147-2.2573-.4225-4.467-.9632-1.6423-1.1335-10.5486-4.934-12.1844-5.6718a8.0225,8.0225,0,0,1-.598-.6456,8.988,8.988,0,0,1-.3056-2.3509,18.2318,18.2318,0,0,1,0-4.4253c.34-1.3616,1.8721-2.3826,2.3826-3.4039a34.8968,34.8968,0,0,0,1.1916-5.2761,2.7205,2.7205,0,0,0,2.2126-1.1912c.6808-1.1915,1.1913-6.1272.8508-7.8292s-2.5529-1.5318-2.5529-1.5318c.17,3.9146-.6808,8.51-1.7021,10.3821s-3.0634,3.9144-3.5739,5.6165-.51,2.0423-1.5317,1.872a10.0855,10.0855,0,0,0-2.0425.106v-4.02H94.7089v4.0368a10.8322,10.8322,0,0,0-2.1806-.1224c-1.0211.17-1.0211-.17-1.5318-1.872s-2.5527-3.7443-3.5739-5.6165S85.55,22.05,85.7205,18.1358c0,0-2.2126-.17-2.5529,1.5318s.17,6.6377.8509,7.8292a2.72,2.72,0,0,0,2.2126,1.1912,34.9064,34.9064,0,0,0,1.1915,5.2761c.51,1.0213,2.0424,2.0423,2.3827,3.4039a18.2318,18.2318,0,0,1,0,4.4253s0,2.5528-.6809,2.8932S78.4021,49.2818,76.7,50.4731Z"/><path class="cls-4" d="M99.5505,156.8774h0M76.6194,50.53c-2.0776.4985-3.7194.7854-4.1859.8951-1.0128.2383-8.1022,1.7873-11.1407,6.0768a17.9448,17.9448,0,0,0-3.4555,10.4259c-.1192,2.5617,0,8.4,0,8.4A53.0706,53.0706,0,0,0,52.8331,86.456c-2.2044,5.9576-2.3234,8.6386-2.3234,8.6386a41.7957,41.7957,0,0,0-4.7152,9.0418l-.08.0927c-3.9543,4.55-3.6785,8.835-4.2859,15.0078s-.7825,11.0563-1.8013,14.57-4.0174,13.0416-4.331,13.3319a42.0543,42.0543,0,0,0-5.1937,3.6244c-2.6637,2.268-2.5237,3.5537-3.1187,4.2994a6.9592,6.9592,0,0,0-1.5935,2.6275c-.7511,1.833-1.3829,1.815-1.6866,2.4458s.4233,2.4288,1.6433,2.1022,2.136-2.05,2.802-2.7237a10.3232,10.3232,0,0,0,1.3784-2.1279l-.07,1.67s-2.8827,6.7937-3.6228,8.5387-2.3069,4.7956-2.0374,7.0261,2.108.5541,2.108.5541,3.9474-6.3189,4.7417-7.789,1.333-1.6339,1.333-1.6339-2.4151,8.8711-2.8364,10.4959-1.37,3.4684.0006,4.625,2.5291-1.0709,2.5291-1.0709,3.0642-9.3418,3.7283-11.4714,1.3426-1.0076,1.3426-1.0076-1.7583,9.8831-1.9252,10.7726-.5764,2.2836.1571,3.3949,2.3393.28,2.7144-.4221S40.4449,168.133,40.94,167.75s.4588,1.1657.74,2.88.4248,6.4826.7749,7.0986,2.0858.73,2.3081-.4561-.32-9.13-.4264-10.5363,1.0179-3.2276,2.31-5.9379,1.7434-8.2246,1.77-10.4,1.62-5.3687,2.9715-10.09a65.0955,65.0955,0,0,1,6.0356-13.67A133.5322,133.5322,0,0,0,64.51,110.76c.5025-1.8258.0149-6.4772.0149-6.4772s.0456-.3552.1184-.9708c.0537-.3933.09-.7231.115-.9951.04-.3583.0841-.7566.13-1.1878.5193-1.0409,3.4184-6.8635,4.4474-9.1921,1.132-2.5618,1.9064-4.7067,1.9064-4.7067a31.3844,31.3844,0,0,0,2.3831,7.5067c1.6681,3.3362,1.9064,5.2426,2.4426,6.3151a11.6423,11.6423,0,0,1,.9533,4.17c.12,1.2417.3749,2.7255.42,4.3611a29.58,29.58,0,0,1-1.5029,7.6186c-1.229,2.8089-.3511,5.4423-.3511,7.5489s-2.2824,18.7841-4.2133,25.1041-.5268,10.8845-.5268,15.8v4.9154l25.631.5267a16.1969,16.1969,0,0,0,1.931-6.4954c.0877-3.2479.0877-7.3734.0877-7.3734l1.0533-.351h0l2.2948.351s0,4.1255.0875,7.3734a16.198,16.198,0,0,0,1.9312,6.4954l25.631-.5267v-4.9154c0-4.9155,1.4043-9.48-.5268-15.8s-4.2133-22.9974-4.2133-25.1041.8778-4.74-.3511-7.5489c-1.1846-2.7076-1.5535-8.187-1.5785-8.5791.0923-1.2579.2747-2.4069.3708-3.4006a11.6359,11.6359,0,0,1,.9533-4.17c.5362-1.0725.7743-2.9789,2.4424-6.3151a31.3767,31.3767,0,0,0,2.3832-7.5067s.7746,2.1449,1.9065,4.7067c.9551,2.1616,3.5221,7.3349,4.3007,8.8984H135.08c.2149,2.0525.3943,3.4474.3943,3.4474s-.4876,4.6514.0147,6.4772a133.5393,133.5393,0,0,0,7.0865,15.8789,65.0951,65.0951,0,0,1,6.0355,13.67c1.351,4.7208,2.9448,7.9146,2.9716,10.09s.4788,7.6891,1.77,10.4,2.416,4.5314,2.3093,5.9379-.6486,9.35-.4263,10.5363,1.9579,1.0721,2.3082.4561.4931-5.3841.7747-7.0986.2451-3.2635.74-2.88,2.8744,12.6164,3.2494,13.3186,1.9808,1.5333,2.7144.4221.3239-2.5055.157-3.3949-1.9251-10.7726-1.9251-10.7726.6786-1.1219,1.3426,1.0076,3.7281,11.4714,3.7281,11.4714,1.1587,2.2274,2.5292,1.0709.4219-3,.0006-4.625-2.8364-10.4959-2.8364-10.4959.5387.1638,1.3329,1.6339,4.7419,7.789,4.7419,7.789,1.8383,1.6766,2.1079-.5541-1.2973-5.2812-2.0374-7.0261-3.6229-8.5387-3.6229-8.5387l-.07-1.67a10.3232,10.3232,0,0,0,1.3784,2.1279c.666.674,1.5819,2.3969,2.8021,2.7237s1.9468-1.4712,1.6432-2.1022-.9355-.6128-1.6865-2.4458a6.9618,6.9618,0,0,0-1.5935-2.6275c-.5951-.7457-.4551-2.0314-3.1188-4.2994a42.0572,42.0572,0,0,0-5.1936-3.6244c-.3137-.29-3.3123-9.8187-4.3311-13.3319-1.003-3.4588-1.1882-8.2462-1.7734-14.2842a4.4961,4.4961,0,0,0-.0446-.4589c-.5708-5.9244-.3642-10.109-3.9779-14.4894a41.4943,41.4943,0,0,0-4.8687-9.4794s-.1191-2.681-2.3235-8.6386A53.06,53.06,0,0,0,142.38,76.3278s.1192-5.8386,0-8.4a17.9455,17.9455,0,0,0-3.4555-10.4259c-3.0385-4.29-10.1281-5.8385-11.1408-6.0768-.4873-.1147-2.2573-.4225-4.467-.9632-1.6423-1.1335-10.5486-4.934-12.1844-5.6718a8.0225,8.0225,0,0,1-.598-.6456,8.988,8.988,0,0,1-.3056-2.3509,18.2318,18.2318,0,0,1,0-4.4253c.34-1.3616,1.8721-2.3826,2.3826-3.4039a34.8968,34.8968,0,0,0,1.1916-5.2761,2.7205,2.7205,0,0,0,2.2126-1.1912c.6808-1.1915,1.1913-6.1272.8508-7.8292s-2.5529-1.5318-2.5529-1.5318c.17,3.9146-.6808,8.51-1.7021,10.3821s-3.0634,3.9144-3.5739,5.6165-.51,2.0423-1.5317,1.872a10.0855,10.0855,0,0,0-2.0425.106v-4.02H94.7089v4.0368a10.8322,10.8322,0,0,0-2.1806-.1224c-1.0211.17-1.0211-.17-1.5318-1.872s-2.5527-3.7443-3.5739-5.6165S85.55,22.05,85.7205,18.1358c0,0-2.2126-.17-2.5529,1.5318s.17,6.6377.8509,7.8292a2.72,2.72,0,0,0,2.2126,1.1912,34.9064,34.9064,0,0,0,1.1915,5.2761c.51,1.0213,2.0424,2.0423,2.3827,3.4039a18.2318,18.2318,0,0,1,0,4.4253s0,2.5528-.6809,2.8932S78.4021,49.2818,76.7,50.4731Z"/><path class="cls-5" d="M57.8372,76.3282s2.6819-5.3619,4.9458-7.09"/><path class="cls-5" d="M67.37,64.2937s2.383-2.8,7.9236-2.383,8.2216-.4171,8.2216-.4171"/><path class="cls-5" d="M84.5284,63.1619a63.7678,63.7678,0,0,0,1.3107,6.4938,23.9325,23.9325,0,0,1,.8937,7.2086,23.0354,23.0354,0,0,0,3.8128,13.0473c3.4554,5.3619,5.6,7.864,6.0768,11.4982"/><path class="cls-5" d="M71.2421,87.2307a54.839,54.839,0,0,0,.5969-11.2"/><path class="cls-5" d="M71.8478,81.3613S73.09,82.9115,77.32,83.09a56.63,56.63,0,0,0,7.5661-.1787"/><path class="cls-5" d="M77.0546,105.5469s1.16,8.0463,3.3043,11.1443a67.1831,67.1831,0,0,1,4.17,7.208"/><path class="cls-5" d="M59.329,108.7674a12.5438,12.5438,0,0,1-3.6342,2.9193c-1.6085.5957-3.5149-1.49-4.1106-2.2639a5.6264,5.6264,0,0,1-1.3109-2.86"/><path class="cls-4" d="M49.2014,108.1711S54.2056,118.18,50.75,123.899a57.4371,57.4371,0,0,1-8.3183,10.3052"/><path class="cls-6" d="M52.84,104.4849s-1.7484-5.3621-1.8068-6.0032A68.9872,68.9872,0,0,1,52.315,91.546a73.7537,73.7537,0,0,1,5.0706-12.8805c2.39-4.6044,5.566-8.8592,6.4985-9.4419a2.1435,2.1435,0,0,1,2.6228.0874A6.5144,6.5144,0,0,0,68.78,70.5349c.4954.0291,1.02-.0583,1.2822.8743s.1165,3.089.2623,4.0215.7286,1.5736.7869,2.5354-.35,7.46-.9907,9.3251-5.1285,12.21-6.1194,13.9882a64.9356,64.9356,0,0,1-4.0216,6.09,8.1915,8.1915,0,0,1-2.0982,1.2532,14.8258,14.8258,0,0,0,.3789-2.5645c-.0292-.7867-1.428-1.1947-2.2731-1.3987a20.2861,20.2861,0,0,0-3.1478-.1749"/><path class="cls-5" d="M100.262,52.4081s.0331,44.3246.0344,45.9926"/><path class="cls-5" d="M142.38,76.3282s-2.6819-5.3619-4.9458-7.09"/><path class="cls-5" d="M133.26,64.2937s-2.383-2.8-7.9236-2.383-8.2216-.4171-8.2216-.4171"/><path class="cls-5" d="M116.1023,63.1619a63.7877,63.7877,0,0,1-1.3106,6.4938,23.9293,23.9293,0,0,0-.8937,7.2086,23.0352,23.0352,0,0,1-3.813,13.0473c-3.4554,5.3619-5.6,7.864-6.0766,11.4982"/><path class="cls-5" d="M128.9747,87.2307a54.8432,54.8432,0,0,1-.597-11.2"/><path class="cls-5" d="M128.1233,81.3434s-1.2428,1.55-5.4726,1.7289a56.6122,56.6122,0,0,1-7.5662-.1787"/><path class="cls-5" d="M123.006,105.5469s-1.16,8.0463-3.3043,11.1443a67.2023,67.2023,0,0,0-4.17,7.208"/><path class="cls-5" d="M141.3017,108.7674a12.5438,12.5438,0,0,0,3.6342,2.9193c1.6085.5957,3.5149-1.49,4.1107-2.2639a5.6251,5.6251,0,0,0,1.3107-2.86"/><path class="cls-4" d="M151.43,108.1711s-5.0044,10.0085-1.5489,15.7279,9.5961,15.2831,10.4087,14.4028.2432-3.9471.2432-3.9471"/><path class="cls-6" d="M147.6236,104.1628s1.7128-5.2525,1.77-5.88a67.5656,67.5656,0,0,0-1.256-6.7941,72.272,72.272,0,0,0-4.967-12.6173c-2.3409-4.51-5.4523-8.6782-6.3658-9.249a2.1,2.1,0,0,0-2.5692.0857,6.3835,6.3835,0,0,1-2.2267,1.1988c-.4853.0286-.999-.0571-1.256.8564s-.1142,3.026-.2569,3.9394-.7137,1.5415-.7708,2.4836.3424,7.3078.9705,9.1347,5.0237,11.961,5.9942,13.7022a63.6169,63.6169,0,0,0,3.94,5.9661,8.0289,8.0289,0,0,0,2.0553,1.2275,14.5137,14.5137,0,0,1-.3711-2.512c.0286-.7707,1.3988-1.17,2.2267-1.37a19.8736,19.8736,0,0,1,3.0834-.1713"/><path class="cls-7" d="M85.21,13.4891a8.3581,8.3581,0,0,0-.2183,4.6839,3.5766,3.5766,0,0,1,.7288-.0375c-.17,3.9144.6808,8.51,1.702,10.3819s3.0635,3.9145,3.5742,5.6166.526,2.1372,1.5317,2.3827c2.9172.7127,12.9145.6746,14.9773,0,.9838-.3219,1.0212-.6808,1.5317-2.3827s2.553-3.7444,3.5742-5.6166,1.8722-6.4675,1.702-10.3819a3.5766,3.5766,0,0,1,.7288.0375,8.3581,8.3581,0,0,0-.2183-4.6839c-.8509-2.7231-1.702-1.442-2.3827-2.9738s-2.2126-6.1272-6.1271-7.4886a14.7707,14.7707,0,0,0-6.2973-1.0212A14.7709,14.7709,0,0,0,93.72,3.0267c-3.9144,1.3614-5.4464,5.957-6.1271,7.4886S86.061,10.766,85.21,13.4891Z"/><path class="cls-8" d="M85.21,13.4891a8.3581,8.3581,0,0,0-.2183,4.6839,3.5766,3.5766,0,0,1,.7288-.0375c-.17,3.9144.6808,8.51,1.702,10.3819s3.0635,3.9145,3.5742,5.6166.526,2.1372,1.5317,2.3827c2.9172.7127,12.9145.6746,14.9773,0,.9838-.3219,1.0212-.6808,1.5317-2.3827s2.553-3.7444,3.5742-5.6166,1.8722-6.4675,1.702-10.3819a3.5766,3.5766,0,0,1,.7288.0375,8.3581,8.3581,0,0,0-.2183-4.6839c-.8509-2.7231-1.702-1.442-2.3827-2.9738s-2.2126-6.1272-6.1271-7.4886a14.7707,14.7707,0,0,0-6.2973-1.0212A14.7709,14.7709,0,0,0,93.72,3.0267c-3.9144,1.3614-5.4464,5.957-6.1271,7.4886S86.061,10.766,85.21,13.4891Z"/><path class="cls-8" d="M89.1246,44.6862a16.3752,16.3752,0,0,1,4.0848-.34"/><path class="cls-8" d="M110.91,44.6862a12.37,12.37,0,0,0-3.5741-.34"/><polyline class="cls-5" points="100.037 104 99.855 121.085 100.268 124.288"/><path class="cls-4" d="M95.813,104.5608s-4.5456,15.9224-6.6361,18.0124"/><path class="cls-4" d="M103.8035,103.7481s.5615,12.8075,4.8755,18.4189"/></g></svg>